<svg xmlns="http://www.w3.org/2000/svg" width="1250" height="760" viewBox="0 0 1250 760" role="img" aria-label="LoRA target ablation">
<rect width="1250" height="760" fill="#ffffff"/>
<style>
text{font-family:Inter,Segoe UI,Arial,sans-serif;}
.title{font-weight:700;fill:#20242a;}
.subtitle{fill:#59616f;}
.axis{stroke:#4b5563;stroke-width:1;}
.grid{stroke:#d9dee7;stroke-width:1;}
.tick{fill:#59616f;font-size:12px;}
.label{fill:#20242a;font-size:13px;}
.legend{fill:#20242a;font-size:13px;}
</style>
<text x="60.00" y="42.00" font-size="24" fill="#20242a" text-anchor="start" font-weight="700" class="title">LoRA target ablation</text>
<text x="60.00" y="68.00" font-size="14" fill="#20242a" text-anchor="start" font-weight="400" class="subtitle">All target-only runs use r=4, alpha=8. QKV remains strongest; V-only is much better than Q/K-only.</text>
<rect x="88.00" y="82.00" width="14.00" height="14.00" rx="2" fill="#2f6fbb" stroke="none" opacity="1.0"/>
<text x="108.00" y="94.00" font-size="13" fill="#20242a" text-anchor="start" font-weight="400" class="legend">Dev PPL</text>
<rect x="185.80" y="82.00" width="14.00" height="14.00" rx="2" fill="#f28e2b" stroke="none" opacity="1.0"/>
<text x="205.80" y="94.00" font-size="13" fill="#20242a" text-anchor="start" font-weight="400" class="legend">Test PPL</text>
<line x1="88.00" y1="592.00" x2="1208.00" y2="592.00" stroke="#d9dee7" stroke-width="1"/>
<text x="78.00" y="596.00" font-size="12" fill="#59616f" text-anchor="end" font-weight="400">0</text>
<line x1="88.00" y1="496.00" x2="1208.00" y2="496.00" stroke="#d9dee7" stroke-width="1"/>
<text x="78.00" y="500.00" font-size="12" fill="#59616f" text-anchor="end" font-weight="400">11.36</text>
<line x1="88.00" y1="400.00" x2="1208.00" y2="400.00" stroke="#d9dee7" stroke-width="1"/>
<text x="78.00" y="404.00" font-size="12" fill="#59616f" text-anchor="end" font-weight="400">22.71</text>
<line x1="88.00" y1="304.00" x2="1208.00" y2="304.00" stroke="#d9dee7" stroke-width="1"/>
<text x="78.00" y="308.00" font-size="12" fill="#59616f" text-anchor="end" font-weight="400">34.07</text>
<line x1="88.00" y1="208.00" x2="1208.00" y2="208.00" stroke="#d9dee7" stroke-width="1"/>
<text x="78.00" y="212.00" font-size="12" fill="#59616f" text-anchor="end" font-weight="400">45.43</text>
<line x1="88.00" y1="112.00" x2="1208.00" y2="112.00" stroke="#d9dee7" stroke-width="1"/>
<text x="78.00" y="116.00" font-size="12" fill="#59616f" text-anchor="end" font-weight="400">56.78</text>
<line x1="88.00" y1="112.00" x2="88.00" y2="592.00" stroke="#20242a" stroke-width="1"/>
<line x1="88.00" y1="592.00" x2="1208.00" y2="592.00" stroke="#20242a" stroke-width="1"/>
<text x="20.00" y="352.00" font-size="13" fill="#59616f" text-anchor="middle" font-weight="400" transform="rotate(-90 20.00 352.00)">Perplexity</text>
<rect x="108.16" y="176.79" width="88.84" height="415.21" rx="2" fill="#2f6fbb" stroke="none" opacity="1.0"/>
<text x="152.58" y="171.79" font-size="11" fill="#20242a" text-anchor="middle" font-weight="400">49.12</text>
<rect x="200.00" y="226.40" width="88.84" height="365.60" rx="2" fill="#f28e2b" stroke="none" opacity="1.0"/>
<text x="244.42" y="221.40" font-size="11" fill="#20242a" text-anchor="middle" font-weight="400">43.25</text>
<text x="200.00" y="616.00" font-size="12" fill="#20242a" text-anchor="middle" font-weight="400">Q only</text>
<rect x="332.16" y="174.61" width="88.84" height="417.39" rx="2" fill="#2f6fbb" stroke="none" opacity="1.0"/>
<text x="376.58" y="169.61" font-size="11" fill="#20242a" text-anchor="middle" font-weight="400">49.38</text>
<rect x="424.00" y="223.38" width="88.84" height="368.62" rx="2" fill="#f28e2b" stroke="none" opacity="1.0"/>
<text x="468.42" y="218.38" font-size="11" fill="#20242a" text-anchor="middle" font-weight="400">43.61</text>
<text x="424.00" y="616.00" font-size="12" fill="#20242a" text-anchor="middle" font-weight="400">K only</text>
<rect x="556.16" y="292.87" width="88.84" height="299.13" rx="2" fill="#2f6fbb" stroke="none" opacity="1.0"/>
<text x="600.58" y="287.87" font-size="11" fill="#20242a" text-anchor="middle" font-weight="400">35.39</text>
<rect x="648.00" y="326.47" width="88.84" height="265.53" rx="2" fill="#f28e2b" stroke="none" opacity="1.0"/>
<text x="692.42" y="321.47" font-size="11" fill="#20242a" text-anchor="middle" font-weight="400">31.41</text>
<text x="648.00" y="616.00" font-size="12" fill="#20242a" text-anchor="middle" font-weight="400">V only</text>
<rect x="780.16" y="323.87" width="88.84" height="268.13" rx="2" fill="#2f6fbb" stroke="none" opacity="1.0"/>
<text x="824.58" y="318.87" font-size="11" fill="#20242a" text-anchor="middle" font-weight="400">31.72</text>
<rect x="872.00" y="352.46" width="88.84" height="239.54" rx="2" fill="#f28e2b" stroke="none" opacity="1.0"/>
<text x="916.42" y="347.46" font-size="11" fill="#20242a" text-anchor="middle" font-weight="400">28.34</text>
<text x="872.00" y="616.00" font-size="12" fill="#20242a" text-anchor="middle" font-weight="400">QKV r4</text>
<rect x="1004.16" y="322.67" width="88.84" height="269.33" rx="2" fill="#2f6fbb" stroke="none" opacity="1.0"/>
<text x="1048.58" y="317.67" font-size="11" fill="#20242a" text-anchor="middle" font-weight="400">31.86</text>
<rect x="1096.00" y="352.04" width="88.84" height="239.96" rx="2" fill="#f28e2b" stroke="none" opacity="1.0"/>
<text x="1140.42" y="347.04" font-size="11" fill="#20242a" text-anchor="middle" font-weight="400">28.39</text>
<text x="1096.00" y="616.00" font-size="12" fill="#20242a" text-anchor="middle" font-weight="400">QKV drop</text>
</svg>
