<svg xmlns="http://www.w3.org/2000/svg" width="1250" height="760" viewBox="0 0 1250 760" role="img" aria-label="LM/partA loss curves: selected scratch GPT2 runs">
<rect width="1250" height="760" fill="#ffffff"/>
<style>
text{font-family:Inter,Segoe UI,Arial,sans-serif;}
.title{font-weight:700;fill:#20242a;}
.subtitle{fill:#59616f;}
</style>
<text x="60.00" y="42.00" font-size="24" fill="#20242a" text-anchor="start" font-weight="700" class="title">LM/partA loss curves: selected scratch GPT2 runs</text>
<text x="60.00" y="68.00" font-size="14" fill="#59616f" text-anchor="start" font-weight="400" class="subtitle">Solid lines are train loss; dashed lines are dev loss. Lower is better.</text>
<line x1="88.00" y1="672.00" x2="1202.00" y2="672.00" stroke="#d9dee7" stroke-width="1"/>
<text x="78.00" y="676.00" font-size="12" fill="#59616f" text-anchor="end" font-weight="400">3.56</text>
<line x1="88.00" y1="562.80" x2="1202.00" y2="562.80" stroke="#d9dee7" stroke-width="1"/>
<text x="78.00" y="566.80" font-size="12" fill="#59616f" text-anchor="end" font-weight="400">4.19</text>
<line x1="88.00" y1="453.60" x2="1202.00" y2="453.60" stroke="#d9dee7" stroke-width="1"/>
<text x="78.00" y="457.60" font-size="12" fill="#59616f" text-anchor="end" font-weight="400">4.83</text>
<line x1="88.00" y1="344.40" x2="1202.00" y2="344.40" stroke="#d9dee7" stroke-width="1"/>
<text x="78.00" y="348.40" font-size="12" fill="#59616f" text-anchor="end" font-weight="400">5.46</text>
<line x1="88.00" y1="235.20" x2="1202.00" y2="235.20" stroke="#d9dee7" stroke-width="1"/>
<text x="78.00" y="239.20" font-size="12" fill="#59616f" text-anchor="end" font-weight="400">6.10</text>
<line x1="88.00" y1="126.00" x2="1202.00" y2="126.00" stroke="#d9dee7" stroke-width="1"/>
<text x="78.00" y="130.00" font-size="12" fill="#59616f" text-anchor="end" font-weight="400">6.74</text>
<line x1="88.00" y1="126.00" x2="88.00" y2="672.00" stroke="#d9dee7" stroke-width="1"/>
<text x="88.00" y="698.00" font-size="12" fill="#59616f" text-anchor="middle" font-weight="400">1</text>
<line x1="211.78" y1="126.00" x2="211.78" y2="672.00" stroke="#d9dee7" stroke-width="1"/>
<text x="211.78" y="698.00" font-size="12" fill="#59616f" text-anchor="middle" font-weight="400">2</text>
<line x1="335.56" y1="126.00" x2="335.56" y2="672.00" stroke="#d9dee7" stroke-width="1"/>
<text x="335.56" y="698.00" font-size="12" fill="#59616f" text-anchor="middle" font-weight="400">3</text>
<line x1="459.33" y1="126.00" x2="459.33" y2="672.00" stroke="#d9dee7" stroke-width="1"/>
<text x="459.33" y="698.00" font-size="12" fill="#59616f" text-anchor="middle" font-weight="400">4</text>
<line x1="583.11" y1="126.00" x2="583.11" y2="672.00" stroke="#d9dee7" stroke-width="1"/>
<text x="583.11" y="698.00" font-size="12" fill="#59616f" text-anchor="middle" font-weight="400">5</text>
<line x1="706.89" y1="126.00" x2="706.89" y2="672.00" stroke="#d9dee7" stroke-width="1"/>
<text x="706.89" y="698.00" font-size="12" fill="#59616f" text-anchor="middle" font-weight="400">6</text>
<line x1="830.67" y1="126.00" x2="830.67" y2="672.00" stroke="#d9dee7" stroke-width="1"/>
<text x="830.67" y="698.00" font-size="12" fill="#59616f" text-anchor="middle" font-weight="400">7</text>
<line x1="954.44" y1="126.00" x2="954.44" y2="672.00" stroke="#d9dee7" stroke-width="1"/>
<text x="954.44" y="698.00" font-size="12" fill="#59616f" text-anchor="middle" font-weight="400">8</text>
<line x1="1078.22" y1="126.00" x2="1078.22" y2="672.00" stroke="#d9dee7" stroke-width="1"/>
<text x="1078.22" y="698.00" font-size="12" fill="#59616f" text-anchor="middle" font-weight="400">9</text>
<line x1="1202.00" y1="126.00" x2="1202.00" y2="672.00" stroke="#d9dee7" stroke-width="1"/>
<text x="1202.00" y="698.00" font-size="12" fill="#59616f" text-anchor="middle" font-weight="400">10</text>
<line x1="88.00" y1="126.00" x2="88.00" y2="672.00" stroke="#20242a" stroke-width="1"/>
<line x1="88.00" y1="672.00" x2="1202.00" y2="672.00" stroke="#20242a" stroke-width="1"/>
<text x="645.00" y="732.00" font-size="13" fill="#59616f" text-anchor="middle" font-weight="400">Epoch</text>
<text x="24.00" y="399.00" font-size="13" fill="#59616f" text-anchor="middle" font-weight="400" transform="rotate(-90 24.00 399.00)">Loss</text>
<line x1="88.00" y1="91.00" x2="112.00" y2="91.00" stroke="#2f6fbb" stroke-width="3"/>
<text x="120.00" y="95.00" font-size="12" fill="#20242a" text-anchor="start" font-weight="400">baseline train</text>
<line x1="226.80" y1="91.00" x2="250.80" y2="91.00" stroke="#2f6fbb" stroke-width="3" stroke-dasharray="7 5"/>
<text x="258.80" y="95.00" font-size="12" fill="#20242a" text-anchor="start" font-weight="400">baseline dev</text>
<line x1="351.20" y1="91.00" x2="375.20" y2="91.00" stroke="#f28e2b" stroke-width="3"/>
<text x="383.20" y="95.00" font-size="12" fill="#20242a" text-anchor="start" font-weight="400">lr=1e-3 train</text>
<line x1="482.80" y1="91.00" x2="506.80" y2="91.00" stroke="#f28e2b" stroke-width="3" stroke-dasharray="7 5"/>
<text x="514.80" y="95.00" font-size="12" fill="#20242a" text-anchor="start" font-weight="400">lr=1e-3 dev</text>
<line x1="600.00" y1="91.00" x2="624.00" y2="91.00" stroke="#59a14f" stroke-width="3"/>
<text x="632.00" y="95.00" font-size="12" fill="#20242a" text-anchor="start" font-weight="400">d_model=192 train</text>
<line x1="760.40" y1="91.00" x2="784.40" y2="91.00" stroke="#59a14f" stroke-width="3" stroke-dasharray="7 5"/>
<text x="792.40" y="95.00" font-size="12" fill="#20242a" text-anchor="start" font-weight="400">d_model=192 dev</text>
<line x1="906.40" y1="91.00" x2="930.40" y2="91.00" stroke="#e15759" stroke-width="3"/>
<text x="938.40" y="95.00" font-size="12" fill="#20242a" text-anchor="start" font-weight="400">dropout=0.2 train</text>
<line x1="88.00" y1="113.00" x2="112.00" y2="113.00" stroke="#e15759" stroke-width="3" stroke-dasharray="7 5"/>
<text x="120.00" y="117.00" font-size="12" fill="#20242a" text-anchor="start" font-weight="400">dropout=0.2 dev</text>
<polyline points="88.00,177.91 211.78,414.28 335.56,469.76 459.33,502.34 583.11,527.08 706.89,547.61 830.67,564.50 954.44,578.93 1078.22,591.43 1202.00,602.36" fill="none" stroke="#2f6fbb" stroke-width="2.5" stroke-linejoin="round" stroke-linecap="round"/>
<polyline points="88.00,371.66 211.78,444.48 335.56,477.23 459.33,497.84 583.11,515.46 706.89,529.91 830.67,539.67 954.44,547.53 1078.22,553.20 1202.00,559.02" fill="none" stroke="#2f6fbb" stroke-width="2.5" stroke-linejoin="round" stroke-linecap="round" stroke-dasharray="7 5"/>
<polyline points="88.00,275.83 211.78,467.86 335.56,517.01 459.33,549.26 583.11,572.67 706.89,590.91 830.67,605.32 954.44,617.53 1078.22,627.79 1202.00,636.51" fill="none" stroke="#f28e2b" stroke-width="2.5" stroke-linejoin="round" stroke-linecap="round"/>
<polyline points="88.00,430.05 211.78,485.76 335.56,516.39 459.33,533.61 583.11,547.15 706.89,555.84 830.67,562.61 954.44,564.63 1078.22,567.15 1202.00,570.05" fill="none" stroke="#f28e2b" stroke-width="2.5" stroke-linejoin="round" stroke-linecap="round" stroke-dasharray="7 5"/>
<polyline points="88.00,246.08 211.78,451.93 335.56,505.28 459.33,541.05 583.11,568.05 706.89,589.78 830.67,607.75 954.44,622.76 1078.22,635.98 1202.00,647.84" fill="none" stroke="#59a14f" stroke-width="2.5" stroke-linejoin="round" stroke-linecap="round"/>
<polyline points="88.00,412.59 211.78,474.11 335.56,507.07 459.33,527.42 583.11,544.78 706.89,555.92 830.67,563.46 954.44,567.48 1078.22,569.78 1202.00,572.46" fill="none" stroke="#59a14f" stroke-width="2.5" stroke-linejoin="round" stroke-linecap="round" stroke-dasharray="7 5"/>
<polyline points="88.00,164.65 211.78,397.74 335.56,452.19 459.33,482.54 583.11,504.26 706.89,521.66 830.67,536.02 954.44,548.08 1078.22,558.28 1202.00,567.15" fill="none" stroke="#e15759" stroke-width="2.5" stroke-linejoin="round" stroke-linecap="round"/>
<polyline points="88.00,358.74 211.78,433.55 335.56,465.72 459.33,485.11 583.11,500.46 706.89,514.41 830.67,524.19 954.44,530.75 1078.22,536.69 1202.00,543.40" fill="none" stroke="#e15759" stroke-width="2.5" stroke-linejoin="round" stroke-linecap="round" stroke-dasharray="7 5"/>
</svg>
