<svg xmlns="http://www.w3.org/2000/svg" width="1100" height="760" viewBox="0 0 1100 760" role="img" aria-label="Slot F1 vs semantic frame accuracy">
<rect width="1100" height="760" fill="#ffffff"/>
<style>
text{font-family:Inter,Segoe UI,Arial,sans-serif;}
.title{font-weight:700;fill:#20242a;}
.subtitle{fill:#59616f;}
.axis{stroke:#4b5563;stroke-width:1;}
.grid{stroke:#d9dee7;stroke-width:1;}
.tick{fill:#59616f;font-size:12px;}
.label{fill:#20242a;font-size:13px;}
.legend{fill:#20242a;font-size:13px;}
</style>
<text x="60.00" y="42.00" font-size="24" fill="#20242a" text-anchor="start" font-weight="700" class="title">Slot F1 vs semantic frame accuracy</text>
<text x="60.00" y="68.00" font-size="14" fill="#20242a" text-anchor="start" font-weight="400" class="subtitle">Frame accuracy is stricter: an example is correct only if intent and all valid slots are correct.</text>
<line x1="96.00" y1="112.00" x2="96.00" y2="652.00" stroke="#d9dee7" stroke-width="1"/>
<line x1="96.00" y1="652.00" x2="1052.00" y2="652.00" stroke="#d9dee7" stroke-width="1"/>
<text x="96.00" y="676.00" font-size="12" fill="#59616f" text-anchor="middle" font-weight="400">0.878</text>
<text x="86.00" y="656.00" font-size="12" fill="#59616f" text-anchor="end" font-weight="400">0.655</text>
<line x1="287.20" y1="112.00" x2="287.20" y2="652.00" stroke="#d9dee7" stroke-width="1"/>
<line x1="96.00" y1="544.00" x2="1052.00" y2="544.00" stroke="#d9dee7" stroke-width="1"/>
<text x="287.20" y="676.00" font-size="12" fill="#59616f" text-anchor="middle" font-weight="400">0.895</text>
<text x="86.00" y="548.00" font-size="12" fill="#59616f" text-anchor="end" font-weight="400">0.703</text>
<line x1="478.40" y1="112.00" x2="478.40" y2="652.00" stroke="#d9dee7" stroke-width="1"/>
<line x1="96.00" y1="436.00" x2="1052.00" y2="436.00" stroke="#d9dee7" stroke-width="1"/>
<text x="478.40" y="676.00" font-size="12" fill="#59616f" text-anchor="middle" font-weight="400">0.911</text>
<text x="86.00" y="440.00" font-size="12" fill="#59616f" text-anchor="end" font-weight="400">0.751</text>
<line x1="669.60" y1="112.00" x2="669.60" y2="652.00" stroke="#d9dee7" stroke-width="1"/>
<line x1="96.00" y1="328.00" x2="1052.00" y2="328.00" stroke="#d9dee7" stroke-width="1"/>
<text x="669.60" y="676.00" font-size="12" fill="#59616f" text-anchor="middle" font-weight="400">0.928</text>
<text x="86.00" y="332.00" font-size="12" fill="#59616f" text-anchor="end" font-weight="400">0.799</text>
<line x1="860.80" y1="112.00" x2="860.80" y2="652.00" stroke="#d9dee7" stroke-width="1"/>
<line x1="96.00" y1="220.00" x2="1052.00" y2="220.00" stroke="#d9dee7" stroke-width="1"/>
<text x="860.80" y="676.00" font-size="12" fill="#59616f" text-anchor="middle" font-weight="400">0.945</text>
<text x="86.00" y="224.00" font-size="12" fill="#59616f" text-anchor="end" font-weight="400">0.847</text>
<line x1="1052.00" y1="112.00" x2="1052.00" y2="652.00" stroke="#d9dee7" stroke-width="1"/>
<line x1="96.00" y1="112.00" x2="1052.00" y2="112.00" stroke="#d9dee7" stroke-width="1"/>
<text x="1052.00" y="676.00" font-size="12" fill="#59616f" text-anchor="middle" font-weight="400">0.961</text>
<text x="86.00" y="116.00" font-size="12" fill="#59616f" text-anchor="end" font-weight="400">0.894</text>
<line x1="96.00" y1="112.00" x2="96.00" y2="652.00" stroke="#20242a" stroke-width="1"/>
<line x1="96.00" y1="652.00" x2="1052.00" y2="652.00" stroke="#20242a" stroke-width="1"/>
<text x="574.00" y="732.00" font-size="13" fill="#59616f" text-anchor="middle" font-weight="400">Test slot F1</text>
<text x="24.00" y="382.00" font-size="13" fill="#59616f" text-anchor="middle" font-weight="400" transform="rotate(-90 24.00 382.00)">Test semantic frame accuracy</text>
<circle cx="458.14" cy="435.13" r="7.00" fill="#59a14f" stroke="white" stroke-width="1.8" opacity="0.9"/>
<text x="467.14" y="428.13" font-size="12" fill="#20242a" text-anchor="start" font-weight="400">S-base</text>
<circle cx="564.95" cy="389.59" r="7.00" fill="#59a14f" stroke="white" stroke-width="1.8" opacity="0.9"/>
<text x="573.95" y="382.59" font-size="12" fill="#20242a" text-anchor="start" font-weight="400">S-h8</text>
<circle cx="662.99" cy="384.53" r="7.00" fill="#59a14f" stroke="white" stroke-width="1.8" opacity="0.9"/>
<text x="671.99" y="377.53" font-size="12" fill="#20242a" text-anchor="start" font-weight="400">S-d192</text>
<circle cx="939.41" cy="172.01" r="7.00" fill="#7b5ea7" stroke="white" stroke-width="1.8" opacity="0.9"/>
<text x="948.41" y="165.01" font-size="12" fill="#20242a" text-anchor="start" font-weight="400">BERT</text>
<circle cx="161.93" cy="614.76" r="7.00" fill="#f28e2b" stroke="white" stroke-width="1.8" opacity="0.9"/>
<text x="170.93" y="607.76" font-size="12" fill="#20242a" text-anchor="start" font-weight="400">GPT2</text>
<circle cx="524.45" cy="376.94" r="7.00" fill="#f28e2b" stroke="white" stroke-width="1.8" opacity="0.9"/>
<text x="533.45" y="369.94" font-size="12" fill="#20242a" text-anchor="start" font-weight="400">GPT2 mean</text>
<circle cx="986.07" cy="149.24" r="7.00" fill="#7b5ea7" stroke="white" stroke-width="1.8" opacity="0.9"/>
<text x="995.07" y="142.24" font-size="12" fill="#20242a" text-anchor="start" font-weight="400">BERT extra</text>
<rect x="96.00" y="82.00" width="14.00" height="14.00" rx="2" fill="#59a14f" stroke="none" opacity="1.0"/>
<text x="116.00" y="94.00" font-size="13" fill="#20242a" text-anchor="start" font-weight="400" class="legend">Scratch GPT2</text>
<rect x="230.80" y="82.00" width="14.00" height="14.00" rx="2" fill="#7b5ea7" stroke="none" opacity="1.0"/>
<text x="250.80" y="94.00" font-size="13" fill="#20242a" text-anchor="start" font-weight="400" class="legend">BERT</text>
<rect x="306.40" y="82.00" width="14.00" height="14.00" rx="2" fill="#f28e2b" stroke="none" opacity="1.0"/>
<text x="326.40" y="94.00" font-size="13" fill="#20242a" text-anchor="start" font-weight="400" class="legend">GPT2</text>
</svg>
