<svg xmlns="http://www.w3.org/2000/svg" width="1250" height="760" viewBox="0 0 1250 760" role="img" aria-label="Pretrained NLU comparison on ATIS">
<rect width="1250" height="760" fill="#ffffff"/>
<style>
text{font-family:Inter,Segoe UI,Arial,sans-serif;}
.title{font-weight:700;fill:#20242a;}
.subtitle{fill:#59616f;}
.axis{stroke:#4b5563;stroke-width:1;}
.grid{stroke:#d9dee7;stroke-width:1;}
.tick{fill:#59616f;font-size:12px;}
.label{fill:#20242a;font-size:13px;}
.legend{fill:#20242a;font-size:13px;}
</style>
<text x="60.00" y="42.00" font-size="24" fill="#20242a" text-anchor="start" font-weight="700" class="title">Pretrained NLU comparison on ATIS</text>
<text x="60.00" y="68.00" font-size="14" fill="#20242a" text-anchor="start" font-weight="400" class="subtitle">BERT&#x27;s bidirectional context gives the best slot F1 and semantic frame accuracy.</text>
<rect x="88.00" y="82.00" width="14.00" height="14.00" rx="2" fill="#2f6fbb" stroke="none" opacity="1.0"/>
<text x="108.00" y="94.00" font-size="13" fill="#20242a" text-anchor="start" font-weight="400" class="legend">Test intent acc</text>
<rect x="245.00" y="82.00" width="14.00" height="14.00" rx="2" fill="#f28e2b" stroke="none" opacity="1.0"/>
<text x="265.00" y="94.00" font-size="13" fill="#20242a" text-anchor="start" font-weight="400" class="legend">Test slot F1</text>
<rect x="379.80" y="82.00" width="14.00" height="14.00" rx="2" fill="#59a14f" stroke="none" opacity="1.0"/>
<text x="399.80" y="94.00" font-size="13" fill="#20242a" text-anchor="start" font-weight="400" class="legend">Test frame</text>
<line x1="88.00" y1="592.00" x2="1208.00" y2="592.00" stroke="#d9dee7" stroke-width="1"/>
<text x="78.00" y="596.00" font-size="12" fill="#59616f" text-anchor="end" font-weight="400">0.00</text>
<line x1="88.00" y1="496.00" x2="1208.00" y2="496.00" stroke="#d9dee7" stroke-width="1"/>
<text x="78.00" y="500.00" font-size="12" fill="#59616f" text-anchor="end" font-weight="400">0.20</text>
<line x1="88.00" y1="400.00" x2="1208.00" y2="400.00" stroke="#d9dee7" stroke-width="1"/>
<text x="78.00" y="404.00" font-size="12" fill="#59616f" text-anchor="end" font-weight="400">0.41</text>
<line x1="88.00" y1="304.00" x2="1208.00" y2="304.00" stroke="#d9dee7" stroke-width="1"/>
<text x="78.00" y="308.00" font-size="12" fill="#59616f" text-anchor="end" font-weight="400">0.61</text>
<line x1="88.00" y1="208.00" x2="1208.00" y2="208.00" stroke="#d9dee7" stroke-width="1"/>
<text x="78.00" y="212.00" font-size="12" fill="#59616f" text-anchor="end" font-weight="400">0.82</text>
<line x1="88.00" y1="112.00" x2="1208.00" y2="112.00" stroke="#d9dee7" stroke-width="1"/>
<text x="78.00" y="116.00" font-size="12" fill="#59616f" text-anchor="end" font-weight="400">1.02</text>
<line x1="88.00" y1="112.00" x2="88.00" y2="592.00" stroke="#20242a" stroke-width="1"/>
<line x1="88.00" y1="592.00" x2="1208.00" y2="592.00" stroke="#20242a" stroke-width="1"/>
<text x="20.00" y="352.00" font-size="13" fill="#59616f" text-anchor="middle" font-weight="400" transform="rotate(-90 20.00 352.00)">Score</text>
<rect x="113.20" y="132.48" width="73.53" height="459.52" rx="2" fill="#2f6fbb" stroke="none" opacity="1.0"/>
<text x="149.97" y="127.48" font-size="11" fill="#20242a" text-anchor="middle" font-weight="400">0.98</text>
<rect x="189.73" y="144.25" width="73.53" height="447.75" rx="2" fill="#f28e2b" stroke="none" opacity="1.0"/>
<text x="226.50" y="139.25" font-size="11" fill="#20242a" text-anchor="middle" font-weight="400">0.95</text>
<rect x="266.27" y="183.59" width="73.53" height="408.41" rx="2" fill="#59a14f" stroke="none" opacity="1.0"/>
<text x="303.03" y="178.59" font-size="11" fill="#20242a" text-anchor="middle" font-weight="400">0.87</text>
<text x="228.00" y="616.00" font-size="12" fill="#20242a" text-anchor="middle" font-weight="400">BERT core</text>
<rect x="393.20" y="141.44" width="73.53" height="450.56" rx="2" fill="#2f6fbb" stroke="none" opacity="1.0"/>
<text x="429.97" y="136.44" font-size="11" fill="#20242a" text-anchor="middle" font-weight="400">0.96</text>
<rect x="469.73" y="176.15" width="73.53" height="415.85" rx="2" fill="#f28e2b" stroke="none" opacity="1.0"/>
<text x="506.50" y="171.15" font-size="11" fill="#20242a" text-anchor="middle" font-weight="400">0.88</text>
<rect x="546.27" y="275.82" width="73.53" height="316.18" rx="2" fill="#59a14f" stroke="none" opacity="1.0"/>
<text x="583.03" y="270.82" font-size="11" fill="#20242a" text-anchor="middle" font-weight="400">0.67</text>
<text x="508.00" y="616.00" font-size="12" fill="#20242a" text-anchor="middle" font-weight="400">GPT2 core</text>
<rect x="673.20" y="136.69" width="73.53" height="455.31" rx="2" fill="#2f6fbb" stroke="none" opacity="1.0"/>
<text x="709.97" y="131.69" font-size="11" fill="#20242a" text-anchor="middle" font-weight="400">0.97</text>
<rect x="749.73" y="161.28" width="73.53" height="430.72" rx="2" fill="#f28e2b" stroke="none" opacity="1.0"/>
<text x="786.50" y="156.28" font-size="11" fill="#20242a" text-anchor="middle" font-weight="400">0.92</text>
<rect x="826.27" y="226.28" width="73.53" height="365.72" rx="2" fill="#59a14f" stroke="none" opacity="1.0"/>
<text x="863.03" y="221.28" font-size="11" fill="#20242a" text-anchor="middle" font-weight="400">0.78</text>
<text x="788.00" y="616.00" font-size="12" fill="#20242a" text-anchor="middle" font-weight="400">GPT2 mean</text>
<rect x="953.20" y="131.95" width="73.53" height="460.05" rx="2" fill="#2f6fbb" stroke="none" opacity="1.0"/>
<text x="989.97" y="126.95" font-size="11" fill="#20242a" text-anchor="middle" font-weight="400">0.98</text>
<rect x="1029.73" y="142.34" width="73.53" height="449.66" rx="2" fill="#f28e2b" stroke="none" opacity="1.0"/>
<text x="1066.50" y="137.34" font-size="11" fill="#20242a" text-anchor="middle" font-weight="400">0.96</text>
<rect x="1106.27" y="178.85" width="73.53" height="413.15" rx="2" fill="#59a14f" stroke="none" opacity="1.0"/>
<text x="1143.03" y="173.85" font-size="11" fill="#20242a" text-anchor="middle" font-weight="400">0.88</text>
<text x="1068.00" y="616.00" font-size="12" fill="#20242a" text-anchor="middle" font-weight="400">BERT ontology</text>
</svg>
