<svg xmlns="http://www.w3.org/2000/svg" width="1250" height="760" viewBox="0 0 1250 760" role="img" aria-label="Scratch GPT2 ATIS ablations">
<rect width="1250" height="760" fill="#ffffff"/>
<style>
text{font-family:Inter,Segoe UI,Arial,sans-serif;}
.title{font-weight:700;fill:#20242a;}
.subtitle{fill:#59616f;}
.axis{stroke:#4b5563;stroke-width:1;}
.grid{stroke:#d9dee7;stroke-width:1;}
.tick{fill:#59616f;font-size:12px;}
.label{fill:#20242a;font-size:13px;}
.legend{fill:#20242a;font-size:13px;}
</style>
<text x="60.00" y="42.00" font-size="24" fill="#20242a" text-anchor="start" font-weight="700" class="title">Scratch GPT2 ATIS ablations</text>
<text x="60.00" y="68.00" font-size="14" fill="#20242a" text-anchor="start" font-weight="400" class="subtitle">Intent accuracy, slot F1 and semantic frame accuracy. Higher is better.</text>
<rect x="88.00" y="82.00" width="14.00" height="14.00" rx="2" fill="#2f6fbb" stroke="none" opacity="1.0"/>
<text x="108.00" y="94.00" font-size="13" fill="#20242a" text-anchor="start" font-weight="400" class="legend">Dev slot F1</text>
<rect x="215.40" y="82.00" width="14.00" height="14.00" rx="2" fill="#f28e2b" stroke="none" opacity="1.0"/>
<text x="235.40" y="94.00" font-size="13" fill="#20242a" text-anchor="start" font-weight="400" class="legend">Test slot F1</text>
<rect x="350.20" y="82.00" width="14.00" height="14.00" rx="2" fill="#59a14f" stroke="none" opacity="1.0"/>
<text x="370.20" y="94.00" font-size="13" fill="#20242a" text-anchor="start" font-weight="400" class="legend">Test frame</text>
<line x1="88.00" y1="592.00" x2="1208.00" y2="592.00" stroke="#d9dee7" stroke-width="1"/>
<text x="78.00" y="596.00" font-size="12" fill="#59616f" text-anchor="end" font-weight="400">0.00</text>
<line x1="88.00" y1="496.00" x2="1208.00" y2="496.00" stroke="#d9dee7" stroke-width="1"/>
<text x="78.00" y="500.00" font-size="12" fill="#59616f" text-anchor="end" font-weight="400">0.20</text>
<line x1="88.00" y1="400.00" x2="1208.00" y2="400.00" stroke="#d9dee7" stroke-width="1"/>
<text x="78.00" y="404.00" font-size="12" fill="#59616f" text-anchor="end" font-weight="400">0.41</text>
<line x1="88.00" y1="304.00" x2="1208.00" y2="304.00" stroke="#d9dee7" stroke-width="1"/>
<text x="78.00" y="308.00" font-size="12" fill="#59616f" text-anchor="end" font-weight="400">0.61</text>
<line x1="88.00" y1="208.00" x2="1208.00" y2="208.00" stroke="#d9dee7" stroke-width="1"/>
<text x="78.00" y="212.00" font-size="12" fill="#59616f" text-anchor="end" font-weight="400">0.82</text>
<line x1="88.00" y1="112.00" x2="1208.00" y2="112.00" stroke="#d9dee7" stroke-width="1"/>
<text x="78.00" y="116.00" font-size="12" fill="#59616f" text-anchor="end" font-weight="400">1.02</text>
<line x1="88.00" y1="112.00" x2="88.00" y2="592.00" stroke="#20242a" stroke-width="1"/>
<line x1="88.00" y1="592.00" x2="1208.00" y2="592.00" stroke="#20242a" stroke-width="1"/>
<text x="20.00" y="352.00" font-size="13" fill="#59616f" text-anchor="middle" font-weight="400" transform="rotate(-90 20.00 352.00)">Score</text>
<rect x="100.60" y="150.31" width="35.27" height="441.69" rx="2" fill="#2f6fbb" stroke="none" opacity="1.0"/>
<text x="118.23" y="145.31" font-size="11" fill="#20242a" text-anchor="middle" font-weight="400">0.94</text>
<rect x="138.87" y="164.00" width="35.27" height="428.00" rx="2" fill="#f28e2b" stroke="none" opacity="1.0"/>
<text x="156.50" y="159.00" font-size="11" fill="#20242a" text-anchor="middle" font-weight="400">0.91</text>
<rect x="177.13" y="238.40" width="35.27" height="353.60" rx="2" fill="#59a14f" stroke="none" opacity="1.0"/>
<text x="194.77" y="233.40" font-size="11" fill="#20242a" text-anchor="middle" font-weight="400">0.75</text>
<text x="158.00" y="616.00" font-size="12" fill="#20242a" text-anchor="middle" font-weight="400">base</text>
<rect x="240.60" y="150.30" width="35.27" height="441.70" rx="2" fill="#2f6fbb" stroke="none" opacity="1.0"/>
<text x="258.23" y="145.30" font-size="11" fill="#20242a" text-anchor="middle" font-weight="400">0.94</text>
<rect x="278.87" y="159.50" width="35.27" height="432.50" rx="2" fill="#f28e2b" stroke="none" opacity="1.0"/>
<text x="296.50" y="154.50" font-size="11" fill="#20242a" text-anchor="middle" font-weight="400">0.92</text>
<rect x="317.13" y="229.44" width="35.27" height="362.56" rx="2" fill="#59a14f" stroke="none" opacity="1.0"/>
<text x="334.77" y="224.44" font-size="11" fill="#20242a" text-anchor="middle" font-weight="400">0.77</text>
<text x="298.00" y="616.00" font-size="12" fill="#20242a" text-anchor="middle" font-weight="400">lr1e-3</text>
<rect x="380.60" y="149.43" width="35.27" height="442.57" rx="2" fill="#2f6fbb" stroke="none" opacity="1.0"/>
<text x="398.23" y="144.43" font-size="11" fill="#20242a" text-anchor="middle" font-weight="400">0.94</text>
<rect x="418.87" y="159.26" width="35.27" height="432.74" rx="2" fill="#f28e2b" stroke="none" opacity="1.0"/>
<text x="436.50" y="154.26" font-size="11" fill="#20242a" text-anchor="middle" font-weight="400">0.92</text>
<rect x="457.13" y="228.91" width="35.27" height="363.09" rx="2" fill="#59a14f" stroke="none" opacity="1.0"/>
<text x="474.77" y="223.91" font-size="11" fill="#20242a" text-anchor="middle" font-weight="400">0.77</text>
<text x="438.00" y="616.00" font-size="12" fill="#20242a" text-anchor="middle" font-weight="400">lr3e-4</text>
<rect x="520.60" y="146.66" width="35.27" height="445.34" rx="2" fill="#2f6fbb" stroke="none" opacity="1.0"/>
<text x="538.23" y="141.66" font-size="11" fill="#20242a" text-anchor="middle" font-weight="400">0.95</text>
<rect x="558.87" y="155.59" width="35.27" height="436.41" rx="2" fill="#f28e2b" stroke="none" opacity="1.0"/>
<text x="576.50" y="150.59" font-size="11" fill="#20242a" text-anchor="middle" font-weight="400">0.93</text>
<rect x="597.13" y="227.86" width="35.27" height="364.14" rx="2" fill="#59a14f" stroke="none" opacity="1.0"/>
<text x="614.77" y="222.86" font-size="11" fill="#20242a" text-anchor="middle" font-weight="400">0.77</text>
<text x="578.00" y="616.00" font-size="12" fill="#20242a" text-anchor="middle" font-weight="400">d192</text>
<rect x="660.60" y="148.70" width="35.27" height="443.30" rx="2" fill="#2f6fbb" stroke="none" opacity="1.0"/>
<text x="678.23" y="143.70" font-size="11" fill="#20242a" text-anchor="middle" font-weight="400">0.94</text>
<rect x="698.87" y="159.62" width="35.27" height="432.38" rx="2" fill="#f28e2b" stroke="none" opacity="1.0"/>
<text x="716.50" y="154.62" font-size="11" fill="#20242a" text-anchor="middle" font-weight="400">0.92</text>
<rect x="737.13" y="228.91" width="35.27" height="363.09" rx="2" fill="#59a14f" stroke="none" opacity="1.0"/>
<text x="754.77" y="223.91" font-size="11" fill="#20242a" text-anchor="middle" font-weight="400">0.77</text>
<text x="718.00" y="616.00" font-size="12" fill="#20242a" text-anchor="middle" font-weight="400">h8</text>
<rect x="800.60" y="147.98" width="35.27" height="444.02" rx="2" fill="#2f6fbb" stroke="none" opacity="1.0"/>
<text x="818.23" y="142.98" font-size="11" fill="#20242a" text-anchor="middle" font-weight="400">0.94</text>
<rect x="838.87" y="160.95" width="35.27" height="431.05" rx="2" fill="#f28e2b" stroke="none" opacity="1.0"/>
<text x="856.50" y="155.95" font-size="11" fill="#20242a" text-anchor="middle" font-weight="400">0.92</text>
<rect x="877.13" y="231.55" width="35.27" height="360.45" rx="2" fill="#59a14f" stroke="none" opacity="1.0"/>
<text x="894.77" y="226.55" font-size="11" fill="#20242a" text-anchor="middle" font-weight="400">0.77</text>
<text x="858.00" y="616.00" font-size="12" fill="#20242a" text-anchor="middle" font-weight="400">L3</text>
<rect x="940.60" y="148.44" width="35.27" height="443.56" rx="2" fill="#2f6fbb" stroke="none" opacity="1.0"/>
<text x="958.23" y="143.44" font-size="11" fill="#20242a" text-anchor="middle" font-weight="400">0.94</text>
<rect x="978.87" y="159.44" width="35.27" height="432.56" rx="2" fill="#f28e2b" stroke="none" opacity="1.0"/>
<text x="996.50" y="154.44" font-size="11" fill="#20242a" text-anchor="middle" font-weight="400">0.92</text>
<rect x="1017.13" y="230.50" width="35.27" height="361.50" rx="2" fill="#59a14f" stroke="none" opacity="1.0"/>
<text x="1034.77" y="225.50" font-size="11" fill="#20242a" text-anchor="middle" font-weight="400">0.77</text>
<text x="998.00" y="616.00" font-size="12" fill="#20242a" text-anchor="middle" font-weight="400">ff768</text>
<rect x="1080.60" y="151.98" width="35.27" height="440.02" rx="2" fill="#2f6fbb" stroke="none" opacity="1.0"/>
<text x="1098.23" y="146.98" font-size="11" fill="#20242a" text-anchor="middle" font-weight="400">0.94</text>
<rect x="1118.87" y="164.63" width="35.27" height="427.37" rx="2" fill="#f28e2b" stroke="none" opacity="1.0"/>
<text x="1136.50" y="159.63" font-size="11" fill="#20242a" text-anchor="middle" font-weight="400">0.91</text>
<rect x="1157.13" y="236.29" width="35.27" height="355.71" rx="2" fill="#59a14f" stroke="none" opacity="1.0"/>
<text x="1174.77" y="231.29" font-size="11" fill="#20242a" text-anchor="middle" font-weight="400">0.76</text>
<text x="1138.00" y="616.00" font-size="12" fill="#20242a" text-anchor="middle" font-weight="400">drop.2</text>
</svg>
